<?xml version="1.0" encoding="UTF-8"?><svg width="16px" height="16px" viewBox="0 0 16 16" version="1.1" xmlns="http://www.w3.org/2000/svg" xmlns:xlink="http://www.w3.org/1999/xlink"><title>3.0 icon/Lui-icon-date@4x</title><g id="----4.18-表单✨" stroke="none" stroke-width="1" fill="none" fill-rule="evenodd"><g id="表单规范-查询区表单" transform="translate(-465.000000, -1605.000000)"><g id="编组-5" transform="translate(73.000000, 865.000000)"><g id="编组-11" transform="translate(1.000000, 516.000000)"><g id="编组-2" transform="translate(0.000000, 56.000000)"><g id="录入/表单--默认00" transform="translate(72.000000, 160.000000)"><g id="范围输入框" transform="translate(68.000000, 0.000000)"><g id="编组" transform="translate(0.000000, 6.000000)"><g id="范围基础组件" transform="translate(128.333333, 0.000000)"><g id="编组-5" transform="translate(122.666667, 0.000000)"><g id="3.0-icon/Lui-icon-date" transform="translate(0.000000, 2.000000)"><g id="icon_grid" fill="#FFFFFF" fill-opacity="0.5" opacity="0.01"><rect id="矩形" x="0" y="0" width="16" height="16"/></g><path d="M10.6666667,0.666666667 C11.0348565,0.666666667 11.3333333,0.9651435 11.3333333,1.33333333 L12,1.33333333 C13.4727593,1.33333333 14.6666667,2.52724067 14.6666667,4 L14.6666667,12 C14.6666667,13.4727593 13.4727593,14.6666667 12,14.6666667 L4,14.6666667 C2.52724067,14.6666667 1.33333333,13.4727593 1.33333333,12 L1.33333333,4 C1.33333333,2.52724067 2.52724067,1.33333333 4,1.33333333 L4.66666667,1.33333333 C4.66666667,0.9651435 4.9651435,0.666666667 5.33333333,0.666666667 C5.70152317,0.666666667 6,0.9651435 6,1.33333333 L10,1.33333333 C10,0.9651435 10.2984768,0.666666667 10.6666667,0.666666667 Z M13.3333333,6.66666667 L2.66666667,6.66666667 L2.66666667,12 C2.66666667,12.7029079 3.21058519,13.2787767 3.90049177,13.3296762 L4,13.3333333 L12,13.3333333 C12.7029079,13.3333333 13.2787767,12.7894148 13.3296762,12.0995082 L13.3333333,12 L13.3333333,6.66666667 Z M4.66666667,10.6666667 C5.0348565,10.6666667 5.33333333,10.9651435 5.33333333,11.3333333 C5.33333333,11.7015232 5.0348565,12 4.66666667,12 C4.29847683,12 4,11.7015232 4,11.3333333 C4,10.9651435 4.29847683,10.6666667 4.66666667,10.6666667 Z M8,10.6666667 C8.36818983,10.6666667 8.66666667,10.9651435 8.66666667,11.3333333 C8.66666667,11.7015232 8.36818983,12 8,12 C7.63181017,12 7.33333333,11.7015232 7.33333333,11.3333333 C7.33333333,10.9651435 7.63181017,10.6666667 8,10.6666667 Z M11.3333333,10.6666667 C11.7015232,10.6666667 12,10.9651435 12,11.3333333 C12,11.7015232 11.7015232,12 11.3333333,12 C10.9651435,12 10.6666667,11.7015232 10.6666667,11.3333333 C10.6666667,10.9651435 10.9651435,10.6666667 11.3333333,10.6666667 Z M4.66666667,8 C5.0348565,8 5.33333333,8.29847683 5.33333333,8.66666667 C5.33333333,9.0348565 5.0348565,9.33333333 4.66666667,9.33333333 C4.29847683,9.33333333 4,9.0348565 4,8.66666667 C4,8.29847683 4.29847683,8 4.66666667,8 Z M8,8 C8.36818983,8 8.66666667,8.29847683 8.66666667,8.66666667 C8.66666667,9.0348565 8.36818983,9.33333333 8,9.33333333 C7.63181017,9.33333333 7.33333333,9.0348565 7.33333333,8.66666667 C7.33333333,8.29847683 7.63181017,8 8,8 Z M11.3333333,8 C11.7015232,8 12,8.29847683 12,8.66666667 C12,9.0348565 11.7015232,9.33333333 11.3333333,9.33333333 C10.9651435,9.33333333 10.6666667,9.0348565 10.6666667,8.66666667 C10.6666667,8.29847683 10.9651435,8 11.3333333,8 Z M4.66666667,2.66666667 L4,2.66666667 L3.90049177,2.67032382 C3.21058519,2.72122325 2.66666667,3.29709214 2.66666667,4 L2.66666667,5.33333333 L13.3333333,5.33333333 L13.3333333,4 L13.3296762,3.90049177 C13.2787767,3.21058519 12.7029079,2.66666667 12,2.66666667 L11.3333333,2.66666667 C11.3333333,3.0348565 11.0348565,3.33333333 10.6666667,3.33333333 C10.2984768,3.33333333 10,3.0348565 10,2.66666667 L6,2.66666667 C6,3.0348565 5.70152317,3.33333333 5.33333333,3.33333333 C4.9651435,3.33333333 4.66666667,3.0348565 4.66666667,2.66666667 Z" id="形状结合" fill="#525765" fill-rule="nonzero"/></g></g></g></g></g></g></g></g></g></g></g></svg>