<?xml version="1.0" encoding="UTF-8"?><svg width="60px" height="60px" viewBox="0 0 60 60" version="1.1" xmlns="http://www.w3.org/2000/svg" xmlns:xlink="http://www.w3.org/1999/xlink"><title>编组 8备份 2@4x</title><g id="系统登陆" stroke="none" stroke-width="1" fill="none" fill-rule="evenodd" opacity="0.300000012"><g id="申请加入系统" transform="translate(-607.000000, -294.000000)"><g id="编组-16" transform="translate(293.000000, 107.000000)"><g id="卡片/创建" transform="translate(24.000000, 128.000000)"><g id="编组-8备份-2" transform="translate(320.000000, 89.000000) rotate(-360.000000) translate(-320.000000, -89.000000) translate(290.000000, 59.000000)"><circle id="椭圆形备份" stroke="#FF7700" stroke-width="2" cx="30" cy="30" r="29"/><path d="M30,55 C43.8071187,55 55,43.8071187 55,30 C55,16.1928813 43.8071187,5 30,5 C16.1928813,5 5,16.1928813 5,30 C5,43.8071187 16.1928813,55 30,55 Z" id="椭圆形备份-3" stroke="#FF7700" stroke-width="0.6" stroke-linecap="round" stroke-dasharray="0,2" transform="translate(30.000000, 30.000000) rotate(-90.000000) translate(-30.000000, -30.000000) "/><g id="编组-11" transform="translate(30.369807, 30.315669) rotate(25.000000) translate(-30.369807, -30.315669) translate(12.369807, 6.551588)"><g id="编组-10" transform="translate(1.932612, 0.000000)" fill="#FF7700"><path d="M15.5075488,3.54706317 L14.4898483,4.08209997 C14.3920794,4.13350013 14.271154,4.09591083 14.2197538,3.99814191 C14.199286,3.95920981 14.1922231,3.9146162 14.1996584,3.87126467 L14.3940219,2.73803855 C14.4051495,2.67315973 14.3836398,2.60695969 14.3365026,2.56101226 L13.5131656,1.75845706 C13.4340689,1.68135682 13.4324504,1.55473416 13.5095507,1.47563745 C13.5402524,1.44414072 13.5804809,1.42364328 13.6240083,1.41731838 L14.761832,1.25198292 C14.826974,1.24251723 14.8832872,1.20160335 14.9124196,1.14257465 L15.4212698,0.111531466 C15.4701543,0.0124807323 15.5900794,-0.028187068 15.6891302,0.0206973913 C15.7285727,0.0401634395 15.7604982,0.0720889441 15.7799642,0.111531466 L16.2888145,1.14257465 C16.3179469,1.20160335 16.37426,1.24251723 16.439402,1.25198292 L17.5772257,1.41731838 C17.6865347,1.4332019 17.762271,1.53469048 17.7463875,1.64399945 C17.7400626,1.68752686 17.7195651,1.72775534 17.6880684,1.75845706 L16.8647314,2.56101226 C16.8175942,2.60695969 16.7960845,2.67315973 16.8072121,2.73803855 L17.0015756,3.87126467 C17.0202478,3.98013196 16.9471302,4.08352315 16.8382629,4.10219535 C16.7949114,4.10963072 16.7503178,4.10256779 16.7113857,4.08209997 L15.6936852,3.54706317 C15.6354204,3.51643155 15.5658136,3.51643155 15.5075488,3.54706317 Z M28.1958314,8.62991262 L27.0723126,8.38560933 C26.9643778,8.36213949 26.8959055,8.25561505 26.9193754,8.14768032 C26.9287212,8.10470015 26.9519749,8.06599949 26.9855365,8.03756966 L27.8628513,7.29440253 C27.9130788,7.25185515 27.939154,7.1873168 27.9325793,7.12181981 L27.8177391,5.97779606 C27.8067066,5.86789145 27.8868582,5.76985254 27.9967628,5.75882003 C28.0405274,5.75442682 28.0845197,5.76458324 28.1219292,5.78771696 L29.0998283,6.39244164 C29.1558145,6.42706299 29.2252517,6.43191852 29.2855114,6.40542586 L30.3380551,5.94268358 C30.4391713,5.89822864 30.5571801,5.94416171 30.601635,6.04527796 C30.6193372,6.08554298 30.6232722,6.13052066 30.6128309,6.17324792 L30.339891,7.29015545 C30.3242648,7.3541 30.3411043,7.42163922 30.3849215,7.47076285 L31.1502695,8.32879615 C31.2237953,8.41122609 31.216577,8.5376532 31.1341471,8.611179 C31.1013231,8.64045736 31.0597627,8.65809867 31.0159002,8.66137184 L29.8693149,8.74693399 C29.8036713,8.75183254 29.7446413,8.78871855 29.7114623,8.84557128 L29.1319296,9.8386073 C29.0762548,9.93400674 28.9537849,9.96620992 28.8583855,9.91053511 C28.8203969,9.88836511 28.7907762,9.85429037 28.7741089,9.81358604 L28.3384202,8.74955882 C28.3134764,8.68864175 28.2601544,8.64389933 28.1958314,8.62991262 Z M2.86260591,8.74955882 L2.42691715,9.81358604 C2.3850612,9.9158055 2.26826501,9.96473979 2.16604555,9.92288384 C2.12534122,9.90621658 2.09126648,9.87659586 2.06909648,9.8386073 L1.48956384,8.84557128 C1.45638477,8.78871855 1.39735482,8.75183254 1.33171117,8.74693399 L0.185125922,8.66137184 C0.0749752406,8.65315202 -0.00765604619,8.55719376 0.000563777439,8.44704308 C0.00383695433,8.4031805 0.0214782623,8.36162019 0.0507566215,8.32879615 L0.816104567,7.47076285 C0.85992183,7.42163922 0.87676125,7.3541 0.861135051,7.29015545 L0.588195158,6.17324792 C0.561974242,6.06594833 0.627701493,5.95770857 0.735001082,5.93148766 C0.777728341,5.92104635 0.822706015,5.92498139 0.862971037,5.94268358 L1.91551472,6.40542586 C1.97577435,6.43191852 2.04521163,6.42706299 2.10119775,6.39244164 L3.07909687,5.78771696 C3.17304214,5.72962199 3.2962951,5.7586844 3.35439007,5.85262967 C3.37752379,5.89003916 3.38768021,5.93403147 3.38328701,5.97779606 L3.26844683,7.12181981 C3.26187207,7.1873168 3.28794725,7.25185515 3.33817477,7.29440253 L4.21548956,8.03756966 C4.29977184,8.10896458 4.31021911,8.23516589 4.23882419,8.31944817 C4.21039436,8.35300982 4.1716937,8.37626352 4.12871352,8.38560933 L3.00519471,8.62991262 C2.94087165,8.64389933 2.88754972,8.68864175 2.86260591,8.74955882 Z M15.6934773,43.7292345 L16.7111778,43.1941977 C16.8089467,43.1427975 16.9298721,43.1803868 16.9812723,43.2781557 C17.0017401,43.3170878 17.008803,43.3616814 17.0013677,43.405033 L16.8070042,44.5382591 C16.7958766,44.6031379 16.8173863,44.669338 16.8645235,44.7152854 L17.6878605,45.5178406 C17.7669572,45.5949408 17.7685757,45.7215635 17.6914754,45.8006602 C17.6607737,45.8321569 17.6205452,45.8526544 17.5770178,45.8589793 L16.4391941,46.0243147 C16.3740521,46.0337804 16.3177389,46.0746943 16.2886065,46.133723 L15.7797563,47.1647662 C15.7308718,47.2638169 15.6109467,47.3044847 15.5118959,47.2556003 C15.4724534,47.2361342 15.4405279,47.2042087 15.4210619,47.1647662 L14.9122116,46.133723 C14.8830792,46.0746943 14.8267661,46.0337804 14.7616241,46.0243147 L13.6238004,45.8589793 C13.5144914,45.8430957 13.4387551,45.7416072 13.4546386,45.6322982 C13.4609635,45.5887708 13.481461,45.5485423 13.5129577,45.5178406 L14.3362947,44.7152854 C14.3834319,44.669338 14.4049416,44.6031379 14.393814,44.5382591 L14.1994505,43.405033 C14.1807783,43.2961657 14.2538959,43.1927745 14.3627631,43.1741023 C14.4061147,43.1666669 14.4507083,43.1737299 14.4896404,43.1941977 L15.5073409,43.7292345 C15.5656057,43.7598661 15.6352125,43.7598661 15.6934773,43.7292345 Z M3.00519471,38.646385 L4.12871352,38.8906883 C4.23664825,38.9141581 4.30512056,39.0206826 4.28165072,39.1286173 C4.27230491,39.1715975 4.24905121,39.2102982 4.21548956,39.238728 L3.33817477,39.9818951 C3.28794725,40.0244425 3.26187207,40.0889808 3.26844683,40.1544778 L3.38328701,41.2985016 C3.39431953,41.4084062 3.31416787,41.5064451 3.20426326,41.5174776 C3.16049867,41.5218708 3.11650637,41.5117144 3.07909687,41.4885807 L2.10119775,40.883856 C2.04521163,40.8492347 1.97577435,40.8443791 1.91551472,40.8708718 L0.862971037,41.3336141 C0.761854785,41.378069 0.643846017,41.3321359 0.599391078,41.2310197 C0.581688888,41.1907547 0.577753852,41.145777 0.588195158,41.1030497 L0.861135051,39.9861422 C0.87676125,39.9221976 0.85992183,39.8546584 0.816104567,39.8055348 L0.0507566215,38.9475015 C-0.0227691785,38.8650716 -0.0155509475,38.7386444 0.0668789918,38.6651186 C0.099703026,38.6358403 0.141263343,38.618199 0.185125922,38.6149258 L1.33171117,38.5293637 C1.39735482,38.5244651 1.45638477,38.4875791 1.48956384,38.4307264 L2.06909648,37.4376903 C2.12477129,37.3422909 2.24724116,37.3100877 2.34264061,37.3657625 C2.38062917,37.3879325 2.41024989,37.4220073 2.42691715,37.4627116 L2.86260591,38.5267388 C2.88754972,38.5876559 2.94087165,38.6323983 3.00519471,38.646385 Z M28.3384202,38.5267388 L28.7741089,37.4627116 C28.8159649,37.3604921 28.9327611,37.3115578 29.0349805,37.3534138 C29.0756849,37.3700811 29.1097596,37.3997018 29.1319296,37.4376903 L29.7114623,38.4307264 C29.7446413,38.4875791 29.8036713,38.5244651 29.8693149,38.5293637 L31.0159002,38.6149258 C31.1260509,38.6231456 31.2086821,38.7191039 31.2004623,38.8292546 C31.1971891,38.8731171 31.1795478,38.9146775 31.1502695,38.9475015 L30.3849215,39.8055348 C30.3411043,39.8546584 30.3242648,39.9221976 30.339891,39.9861422 L30.6128309,41.1030497 C30.6390518,41.2103493 30.5733246,41.3185891 30.466025,41.34481 C30.4232978,41.3552513 30.3783201,41.3513163 30.3380551,41.3336141 L29.2855114,40.8708718 C29.2252517,40.8443791 29.1558145,40.8492347 29.0998283,40.883856 L28.1219292,41.4885807 C28.027984,41.5466756 27.904731,41.5176132 27.846636,41.423668 C27.8235023,41.3862585 27.8133459,41.3422662 27.8177391,41.2985016 L27.9325793,40.1544778 C27.939154,40.0889808 27.9130788,40.0244425 27.8628513,39.9818951 L26.9855365,39.238728 C26.9012542,39.1673331 26.890807,39.0411318 26.9622019,38.9568495 C26.9906317,38.9232878 27.0293324,38.9000341 27.0723126,38.8906883 L28.1958314,38.646385 C28.2601544,38.6323983 28.3134764,38.5876559 28.3384202,38.5267388 Z" id="形状结合"/></g><g id="编组-10备份" transform="translate(17.533125, 42.016043) rotate(-180.000000) translate(-17.533125, -42.016043) translate(0.603229, 36.503923)"/><path d="M33.2433775,17.1268131 C32.381769,15.0489566 31.1199377,13.1790014 29.5540444,11.6131081 C26.4776495,8.53671318 22.2276495,6.63392336 17.5332291,6.63392336 C12.8388088,6.63392336 8.58880876,8.53671318 5.51241385,11.6131081 C3.94652059,13.1790014 2.68468931,15.0489566 1.82308075,17.1268131 M1.82308075,30.1410336 C2.68468931,32.2188901 3.94652059,34.0888454 5.51241385,35.6547386 C8.58880876,38.7311336 12.8388088,40.6339234 17.5332291,40.6339234 C22.2276495,40.6339234 26.4776495,38.7311336 29.5540444,35.6547386 C31.1199377,34.0888454 32.381769,32.2188901 33.2433775,30.1410336" id="形状" stroke="#FF7700" stroke-width="0.5" stroke-linecap="round"/><text id="审批中" transform="translate(18.000000, 24.862026) rotate(-360.000000) translate(-18.000000, -24.862026) " font-family="PingFangSC-Regular, PingFang SC" font-size="12" font-weight="normal" fill="#FF7700"><tspan x="2.27373675e-13" y="29.3620262">审批中</tspan></text></g></g></g></g></g></g></svg>